<svg width="580" height="400" xmlns="http://www.w3.org/2000/svg">
 <!-- Created with Method Draw - http://github.com/duopixel/Method-Draw/ -->
 <defs>
  <filter id="svg_2_blur">
   <feGaussianBlur stdDeviation="0.2" in="SourceGraphic"/>
  </filter>
 </defs>
 <g>
  <title>background</title>
  <rect fill="#fff" id="canvas_background" height="402" width="582" y="-1" x="-1"/>
  <g display="none" overflow="visible" y="0" x="0" height="100%" width="100%" id="canvasGrid">
   <rect fill="url(#gridpattern)" stroke-width="0" y="0" x="0" height="100%" width="100%"/>
  </g>
 </g>
 <g>
  <title>Layer 1</title>
  <ellipse ry="160.5" rx="248.5" id="svg_28" cy="203.449997" cx="294" stroke-opacity="null" stroke-width="0" stroke="#000" fill="#666666"/>
  <text font-weight="normal" filter="url(#svg_2_blur)" opacity="0.68" transform="matrix(5.57143, 0, 0, 6.77669, -710.858, -996.017)" xml:space="preserve" text-anchor="start" font-family="'Times New Roman', Times, serif" font-size="24" id="svg_2" y="182.587514" x="147.243596" fill-opacity="null" stroke-opacity="null" stroke="#000" fill="#1A333F">&lt;AM&gt;</text>
  <path id="svg_8" d="m-156.5,251.949997" opacity="0.5" stroke-opacity="null" stroke-width="0" stroke="#000" fill="#1A333F"/>
  <path id="svg_13" d="m375.5,114.949997" opacity="0.5" fill-opacity="null" stroke-opacity="null" stroke-width="0" stroke="#000" fill="#1A333F"/>
  <path id="svg_14" d="m76.5,265.950012l412.5,-0.950012l-188,41" fill-opacity="null" stroke-opacity="null" stroke-width="0" stroke="#000" fill="#1A333F"/>
  <path id="svg_15" d="m177.665527,200.916245c-2.835754,-0.339844 -4.366699,-3.52066 -1.533356,-4.68576c2.953934,-1.148575 4.710587,2.940811 1.483932,3.340714c-1.766495,0.499344 2.294022,1.335739 3.050827,0.495911c2.364594,-0.864349 1.999771,-3.112518 1.430298,-4.69603c-0.197266,-1.21344 -0.444534,-2.512283 -2.47229,-1.822601c-4.892319,0.297043 -8.765701,-3.44957 -8.376923,-6.954254c0.13205,-3.305573 3.719986,-5.570023 6.375809,-7.865494c-0.871902,-3.003326 -1.135208,-6.472916 1.392609,-9.090469c2.328934,-2.12735 3.511154,1.76564 3.904953,3.086853c0.875305,3.088165 -0.869797,6.332687 -3.772934,8.509476c0.277634,1.032227 0.550095,2.065781 0.832901,3.097244c3.067459,-0.446671 5.995956,1.509872 6.162964,3.80159c0.474274,2.069351 -1.284119,4.023727 -3.68631,4.913666c-0.039383,1.776672 1.261322,3.620392 0.794266,5.455582c-0.449463,1.897644 -3.268341,2.827698 -5.586746,2.413574l0,0zm3.202805,-8.096771c0.868973,-1.231476 -0.707245,-3.406616 -0.794083,-4.987289c0.034378,-2.756683 -3.839462,0.533936 -2.687897,1.887848c0.34169,0.800827 3.305664,2.26976 0.583206,1.363724c-2.842636,-1.283737 -2.712738,-4.58786 -0.115143,-5.983398c2.179138,-0.36412 0.847778,-2.558899 0.437546,-3.279617c-2.676331,1.841034 -5.709808,4.159103 -5.248322,7.138992c0.347839,2.792694 4.381531,4.486801 7.824692,3.859741zm1.800873,-0.533249c2.552277,-1.236832 2.468307,-4.482895 -0.324097,-5.490036c-2.97998,-1.188004 -0.938919,1.925552 -0.884186,3.110733c0.413284,0.453278 0.179199,3.097397 1.208282,2.379303zm-3.145966,-14.879227c1.56987,-1.433853 3.364792,-3.503265 2.262054,-5.399017c-2.37439,-1.183533 -3.694489,2.015686 -3.752594,3.416443c-0.021378,0.908066 -0.198975,4.038727 1.49054,1.982574l0,0l0,0z" fill-opacity="null" stroke-opacity="null" stroke-width="0" stroke="#000" fill="#1A333F"/>
  <path id="svg_16" d="m126.775375,205.775345c-0.153587,0.000534 -0.301819,0.007492 -0.436592,0.021378c-0.718201,0.075211 -1.436928,0.300674 -1.436928,0.300674c0,0 0.000778,1.055466 -0.101913,1.809067c-0.102509,0.753204 -0.512726,2.033966 -0.512726,2.033966l0.504044,0.740829l0.008682,-0.137268l1.696541,0.219116l0.150482,0.006409c0,0 0.204704,-0.151123 0.409889,-0.376633c0.205215,-0.226471 0.616058,-0.376541 0.616058,-0.376541c0,0 0.101624,-1.130692 0.101624,-1.959793c0,-0.828384 0.41124,-2.185165 0.41124,-2.185165c0,0 -0.745789,-0.099319 -1.4104,-0.096039l0,0zm-0.278893,4.987762l-1.696541,-0.068436l-0.008682,-0.013412l-0.883011,13.331543c0.030952,0.004822 0.070961,0.010162 0.070961,0.010162c0.02356,0.25531 0.129639,0.450867 0.296097,0.602478l1.892715,0.635696c0.056786,0.011154 0.113831,0.021835 0.170761,0.033569l0.205078,-14.525192l-0.047379,-0.006409l0,0zm-0.1577,14.531601l0,0.023438l-0.170761,-0.057007c-0.767693,-0.150131 -1.498718,-0.275162 -1.892715,-0.635696l-0.399544,-0.134048l0.032486,-0.478592c-0.34581,-0.048645 -2.459648,-0.332764 -3.213211,-0.056152c-0.820877,0.301392 -1.436821,0.753738 -1.642143,1.733276c-0.205208,0.979034 0.410851,2.788315 0.308044,3.993698c-0.102722,1.205658 -1.232033,2.336426 -1.745125,3.315491c-0.51297,0.980164 -1.025566,2.110321 -0.409935,3.768433c0.615898,1.657898 2.873741,2.788086 4.105217,3.16507c1.231285,0.376587 3.795471,0.602661 3.795471,0.602661c0,0 2.46431,0.302887 4.003418,0.22757c3.232376,-0.427826 4.587982,-1.836945 4.789047,-3.596954c0.201096,-1.760498 -0.753021,-3.872559 -2.1418,-5.706787c-1.518066,-2.005615 1.373108,-4.663956 -0.12233,-6.161194c-1.555939,-1.558044 -2.70578,1.013809 -3.798355,0.454605c-0.443573,-0.227005 -0.974152,-0.352539 -1.497765,-0.457809z" fill-opacity="null" stroke-opacity="null" stroke-width="0" stroke="#000" fill="#1A333F"/>
  <path id="svg_19" d="m340.448944,137.226059c-8.283966,0 -14.999054,5.149475 -14.999054,11.500275c0,2.169922 0.794495,4.198288 2.159668,5.930313l-2.159668,4.841049l6.014465,-1.576859c2.504608,1.440445 5.610504,2.306213 8.984589,2.306213c8.284241,0 14.999573,-5.149353 14.999573,-11.500717s-6.715332,-11.500275 -14.999573,-11.500275zm-2.460052,15.916641l-2.504456,2.558701l-6.888489,-7.043854l6.887573,-7.045059l2.505371,2.564438l-4.382172,4.480621l4.382172,4.485153l0,0zm7.575806,2.555191l-2.503479,-2.562225l4.384155,-4.479874l-4.384155,-4.480972l2.503479,-2.562332l6.889221,7.038742l-6.889221,7.046661l0,0z" stroke-opacity="null" stroke-width="0" stroke="#000" fill="#1A333F"/>
  <path id="svg_20" d="m428.038818,182.374695c0.024017,-0.256546 0.040405,-0.515137 0.040405,-0.775803c0,-4.534958 -3.682648,-8.21167 -8.214752,-8.21167c-3.521362,0 -6.521515,2.219223 -7.684723,5.332748c-0.778229,-0.847992 -1.877594,-1.391296 -3.120056,-1.391296c-2.334625,0 -4.227631,1.892456 -4.227631,4.228073c0,0.276718 0.023804,0.545395 0.080078,0.805984c-3.120514,0.51329 -5.502747,3.201675 -5.502747,6.461456c0,3.628891 2.94397,6.569855 6.569916,6.569855l20.864655,0c3.625488,0 6.569336,-2.940964 6.569336,-6.569855c0,-3.219666 -2.317688,-5.885986 -5.374481,-6.449493z" stroke-opacity="null" stroke-width="0" stroke="#000" fill="#1A333F"/>
  <path id="svg_21" d="m465.448395,224.695206l0,-3.05687l0,0c0,-3.770432 -3.447418,-6.827087 -7.711212,-6.827087s-7.703186,3.059937 -7.703186,6.830704l0,0l0,3.053253l-2.792938,0l0,13.118576l21.000031,0l0,-13.118576l-2.792694,0zm-12.977753,-3.053253c0,0 0,0 0,0c0,-2.576401 2.361938,-4.67218 5.266541,-4.67218c2.912781,0 5.281616,2.095779 5.281616,4.668564c0,0 0,0 0,0l0,3.05687l-10.548157,0l0,-3.053253z" stroke-opacity="null" stroke-width="0" stroke="#000" fill="#0E353B"/>
  <path id="svg_22" d="m287.503326,178.104721c-1.21994,-0.269531 -2.489624,-0.442261 -3.51712,-0.490112l-0.179962,-0.008041c0.037292,-0.116745 0.074341,-0.197342 0.080536,-0.209076c0.024689,-0.023849 0.043579,-0.124817 0.043579,-0.221375c0,-0.055893 0.018372,-0.228592 0.049103,-0.461868c0.278961,0.01236 0.644196,0.024231 1.05304,0.028275c1.554382,0.016205 3.189301,0.176712 4.310089,0.433594c0.662415,0.153091 0.885681,0.148834 0.390259,-0.008041c-0.495636,-0.156097 -1.975433,-0.385544 -3.15213,-0.485855c-0.786469,-0.068146 -1.919922,-0.096268 -2.588654,-0.080444c0.018463,-0.152512 0.043182,-0.317444 0.062195,-0.490128c0.098816,-0.662857 0.129761,-1.325729 0.129761,-2.651749c0,-2.056961 -0.080353,-2.62323 -0.600403,-3.985352c-0.210571,-0.554703 -0.445862,-1.024612 -0.731049,-1.450272c0.247711,-0.960403 0.241516,-2.446793 -0.018524,-3.752899c-0.210571,-1.068344 -0.291168,-1.136887 -1.034271,-0.931641c-0.631531,0.176498 -1.139587,0.413818 -1.789642,0.839355c-0.309509,0.200989 -0.730621,0.51413 -1.040375,0.759567c-0.804962,-0.365967 -1.628387,-0.606979 -2.514069,-0.73555c-0.897949,-0.13208 -3.096466,-0.060349 -3.876495,0.128571c-0.761749,0.18074 -1.449493,0.406006 -2.07489,0.670959c-0.309509,-0.249176 -0.761719,-0.582458 -1.08374,-0.795273c-0.650146,-0.426147 -1.157959,-0.662888 -1.795837,-0.835556c-0.742859,-0.209061 -0.817078,-0.1409 -1.034058,0.932098c-0.260193,1.317963 -0.266205,2.828201 0,3.78862c0.024872,0.108505 0.043549,0.184662 0.055542,0.244904c-1.058716,1.727386 -1.405548,3.660309 -1.176575,6.359848c0.062164,0.703583 0.154846,1.346054 0.285034,1.936569c-0.675079,-0.003799 -1.63504,0.028259 -2.328339,0.084717c-1.183075,0.100311 -2.656738,0.329102 -3.158447,0.485855c-0.489014,0.156937 -0.272308,0.161041 0.396484,0.008041c1.12088,-0.252914 2.749298,-0.417633 4.309937,-0.43367c0.297333,0 0.570129,-0.008087 0.80542,-0.015808c0.073883,0.309296 0.154785,0.6064 0.247467,0.891434l-0.012177,0c-1.027954,0.048172 -2.291473,0.220901 -3.511414,0.485886c-0.916595,0.201294 -2.266754,0.599152 -2.421509,0.711533c-0.167145,0.120514 -0.030762,0.096558 0.67514,-0.13652c1.29425,-0.426147 2.972382,-0.751541 5.053223,-0.976349l0.228973,-0.028275c0.452393,1.345932 1.139557,2.37471 2.111816,3.174225c0.594421,0.490173 1.542114,0.996262 2.025055,1.072525c0.129822,0.024094 0.514282,0.124878 0.854584,0.229172c0.33432,0.100464 0.99707,0.257248 1.461578,0.34523l0.011963,0c-0.005829,0.008057 -0.018311,0.012161 -0.024719,0.020203c-0.56958,0.381927 -0.934814,0.980301 -1.182709,1.916229c-0.111389,0.044403 -0.253693,0.104568 -0.402588,0.17276c-0.538635,0.237259 -0.749207,0.285492 -1.287872,0.289688c-0.563477,0.003784 -0.699738,-0.02829 -1.034058,-0.233215c-0.495514,-0.293243 -0.947754,-0.839905 -1.251129,-1.490509c-0.513702,-1.089142 -1.386841,-1.855972 -2.123901,-1.855972c-0.625549,0 -0.743225,0.329132 -0.291016,0.811279c0.681061,0.719193 1.188629,1.458527 1.399231,2.021072c0.117676,0.317413 0.297455,0.803284 0.40271,1.0849c0.111481,0.301331 0.346771,0.706635 0.57608,0.983871c0.526459,0.655106 1.04007,0.96843 1.80191,1.117294c0.513763,0.0961 0.637817,0.0961 1.238495,0c0.290924,-0.048492 0.538818,-0.100601 0.761566,-0.169022c0,0.321518 0,0.691116 0,1.124832c0,2.326279 -0.02475,3.073624 -0.092712,3.290695c-0.136383,0.417999 -0.439606,0.843597 -0.730652,1.036545c-0.291351,0.192581 -0.377838,0.405914 -0.254059,0.598495c0.068237,0.104507 0.197998,0.124878 0.637878,0.088547c0.829712,-0.068298 1.417969,-0.466141 1.72168,-1.173157c0.09903,-0.225159 0.117554,-0.682816 0.14856,-3.053482c0.030945,-2.57106 0.049438,-2.81633 0.173462,-3.18602c0.080231,-0.216995 0.191864,-0.453812 0.253723,-0.51828c0.105499,-0.112534 0.117584,0.108521 0.117584,3.185944c-0.00592,3.395111 -0.030792,3.804825 -0.291077,4.455841c-0.061829,0.148514 -0.17337,0.341324 -0.247498,0.433685c-0.136383,0.164825 -0.198303,0.578659 -0.099457,0.703461c0.155334,0.200409 0.941376,-0.11676 1.374969,-0.554779c0.730927,-0.755096 0.817657,-1.377914 0.8237,-5.873795l0.006165,-2.639389l0.223114,0.028305l0.216461,0.027634l0.037415,3.447266c0.043152,3.885208 0.049469,3.945526 0.557373,4.692871c0.290894,0.425568 0.581879,0.658585 1.052521,0.843643c0.638062,0.244781 0.8302,-0.136658 0.40274,-0.799515c-0.464661,-0.719437 -0.489532,-0.992477 -0.458496,-5.255417c0.012665,-2.735916 0.012665,-2.735916 0.149048,-2.575211c0.284393,0.337463 0.34024,0.892242 0.34024,3.4552c0,3.182037 0.074493,3.483307 0.941406,4.041504c0.402588,0.253479 0.514191,0.285522 1.034119,0.289795c0.551147,0.003784 0.582245,-0.008179 0.606964,-0.197006c0.018524,-0.148682 -0.0495,-0.253311 -0.309875,-0.458099c-0.340393,-0.269211 -0.569519,-0.614929 -0.718109,-1.04837c-0.055725,-0.164948 -0.092926,-1.261978 -0.117584,-3.515594c-0.03717,-3.150009 -0.049683,-3.294434 -0.198395,-3.788849c-0.204437,-0.662888 -0.513855,-1.189346 -0.910339,-1.534775c-0.098907,-0.087997 -0.204224,-0.160675 -0.340485,-0.21286c0.167206,-0.020187 0.322113,-0.044373 0.476868,-0.072113c1.597687,-0.277344 2.439819,-0.506439 3.11496,-0.843658c1.430115,-0.715149 2.40271,-1.904495 2.922852,-3.588257c0.049561,-0.148163 0.092682,-0.293213 0.136292,-0.405563l0.402252,0.044052c2.081085,0.225159 3.759033,0.550323 5.053406,0.976501c0.705902,0.233047 0.842133,0.261154 0.674835,0.140747c-0.154327,-0.112442 -1.504517,-0.510315 -2.414948,-0.707077zm-6.099792,-0.044403c-0.241455,0.674881 -0.898071,1.542984 -1.430603,1.880005c-0.526245,0.337677 -1.349854,0.594788 -2.285126,0.719421c-0.637756,0.084412 -4.198425,0.108368 -4.780609,0.031952c-1.944397,-0.24472 -3.034302,-0.73114 -3.839417,-1.703384c-0.761963,-0.927994 -1.114838,-2.181763 -1.052612,-3.72406c0.037048,-0.968475 0.216644,-1.574905 0.687225,-2.310425c0.427094,-0.670914 0.873322,-1.089005 1.405792,-1.297562c0.445923,-0.176987 1.801941,-0.193115 3.635162,-0.040482c0.805054,0.068253 1.473663,0.068253 2.284973,0c1.913361,-0.156418 3.189178,-0.140289 3.65976,0.05246c0.743164,0.297409 1.418488,1.096771 1.820648,2.16124c0.185913,0.478607 0.223114,0.679001 0.247925,1.41832c0.036865,1.01265 -0.099182,2.089447 -0.353119,2.812515zm-9.648102,-4.351395c-1.089935,-0.244766 -1.715546,2.174011 -0.879425,3.406982c0.396271,0.586685 0.749329,0.683258 1.188843,0.325714c0.408813,-0.329498 0.631805,-0.947937 0.631805,-1.747574c0,-1.068817 -0.377594,-1.852234 -0.941223,-1.985123zm6.607269,0.144821c-1.08963,-0.244858 -1.714966,2.169357 -0.879181,3.40712c0.396576,0.582367 0.74939,0.682846 1.18927,0.32547c0.408539,-0.329773 0.631287,-0.948212 0.631287,-1.752029c0,-1.060272 -0.377472,-1.847916 -0.941376,-1.98056zm-2.928711,4.757141c-0.024811,0.096512 -0.136475,0.240952 -0.254089,0.317062c-0.291168,0.197052 -0.495392,0.128677 -0.80481,-0.232864c-0.192261,-0.224823 -0.279022,-0.341415 -0.334808,-0.108276c-0.055237,0.21666 0.284973,0.650589 0.545135,0.783417c0.241364,0.124329 0.4086,0.128662 0.668915,-0.012283c0.260162,-0.14061 0.482849,-0.518387 0.482849,-0.759445c0,-0.228745 -0.247375,-0.217087 -0.303192,0.01239zm-0.322083,-0.759415c0.167297,-0.189011 0.204315,-0.578796 0.043243,-0.783447s-0.476959,-0.17659 -0.60675,0.056458c-0.142395,0.268753 -0.068237,0.477768 0.037018,0.698624c0.160858,0.161102 0.383911,0.192993 0.526489,0.028366z" fill-opacity="null" stroke-opacity="null" stroke-width="0" stroke="#000" fill="#0E353B"/>
 </g>
</svg>